<svg width="20" height="18" viewBox="0 0 20 18" fill="none" xmlns="http://www.w3.org/2000/svg">
<path fill-rule="evenodd" clip-rule="evenodd" d="M19.75 16.5C19.75 16.9142 19.4142 17.25 19 17.25H1C0.585786 17.25 0.25 16.9142 0.25 16.5V1.5C0.25 1.08579 0.585786 0.75 1 0.75C1.41421 0.75 1.75 1.08579 1.75 1.5V10.3472L6.50594 6.1875C6.77266 5.95401 7.16644 5.93915 7.45 6.15187L12.9634 10.2872L18.5059 5.4375C18.704 5.24149 18.9943 5.1714 19.2599 5.2555C19.5256 5.33959 19.7227 5.56402 19.7718 5.83828C19.8209 6.11254 19.714 6.39143 19.4941 6.5625L13.4941 11.8125C13.2273 12.046 12.8336 12.0608 12.55 11.8481L7.03656 7.71469L1.75 12.3403V15.75H19C19.4142 15.75 19.75 16.0858 19.75 16.5Z" fill="#0D141C"/>
</svg>
