<svg width="20" height="20" viewBox="0 0 20 20" fill="none" xmlns="http://www.w3.org/2000/svg">
<path fill-rule="evenodd" clip-rule="evenodd" d="M19.6488 17.875C18.2209 15.4066 16.0206 13.6366 13.4528 12.7975C16.0635 11.2433 17.3141 8.13638 16.5082 5.2069C15.7022 2.27741 13.0383 0.247449 10 0.247449C6.96167 0.247449 4.29779 2.27741 3.49182 5.2069C2.68585 8.13638 3.93645 11.2433 6.54719 12.7975C3.97938 13.6356 1.77906 15.4056 0.35125 17.875C0.208704 18.1074 0.203527 18.3989 0.337731 18.6363C0.471935 18.8736 0.724375 19.0194 0.997024 19.0171C1.26967 19.0147 1.51958 18.8646 1.64969 18.625C3.41594 15.5725 6.53781 13.75 10 13.75C13.4622 13.75 16.5841 15.5725 18.3503 18.625C18.4804 18.8646 18.7303 19.0147 19.003 19.0171C19.2756 19.0194 19.5281 18.8736 19.6623 18.6363C19.7965 18.3989 19.7913 18.1074 19.6488 17.875ZM4.75 7C4.75 4.1005 7.1005 1.75 10 1.75C12.8995 1.75 15.25 4.1005 15.25 7C15.25 9.8995 12.8995 12.25 10 12.25C7.10179 12.2469 4.7531 9.89821 4.75 7Z" fill="#0D141C"/>
</svg>
