<svg width="18" height="22" viewBox="0 0 18 22" fill="none" xmlns="http://www.w3.org/2000/svg">
<path fill-rule="evenodd" clip-rule="evenodd" d="M13.5 20.75C13.5 21.1642 13.1642 21.5 12.75 21.5H5.25C4.83579 21.5 4.5 21.1642 4.5 20.75C4.5 20.3358 4.83579 20 5.25 20H12.75C13.1642 20 13.5 20.3358 13.5 20.75ZM17.25 8.75C17.2565 11.2836 16.0926 13.6783 14.0963 15.2384C13.723 15.5246 13.5029 15.9672 13.5 16.4375V17C13.5 17.8284 12.8284 18.5 12 18.5H6C5.17157 18.5 4.5 17.8284 4.5 17V16.4375C4.49969 15.9728 4.28398 15.5344 3.91594 15.2506C1.9248 13.6999 0.757338 11.3197 0.75 8.79594C0.725625 4.32781 4.33688 0.606875 8.80125 0.5C11.0235 0.446448 13.1734 1.29194 14.7638 2.84496C16.3542 4.39798 17.2506 6.52709 17.25 8.75ZM15.75 8.75C15.7505 6.93116 15.017 5.18908 13.7157 3.91842C12.4143 2.64775 10.6552 1.95604 8.83687 2C5.18062 2.08625 2.23031 5.13031 2.25 8.78656C2.25694 10.8506 3.21244 12.7969 4.84125 14.0647C5.57354 14.634 6.00133 15.51 6 16.4375V17H12V16.4375C12.0021 15.5074 12.4335 14.6303 13.1691 14.0609C14.8031 12.784 15.7556 10.8238 15.75 8.75ZM14.2397 7.87438C13.8414 5.64954 12.0996 3.90815 9.87469 3.51031C9.46617 3.44145 9.07917 3.71679 9.01031 4.12531C8.94145 4.53383 9.21679 4.92082 9.62531 4.98969C11.1788 5.25125 12.4969 6.56937 12.7603 8.12562C12.8216 8.4863 13.1342 8.75014 13.5 8.75C13.5424 8.74975 13.5847 8.7463 13.6266 8.73969C14.0348 8.67 14.3093 8.28262 14.2397 7.87438Z" fill="#0D141C"/>
</svg>
