<svg width="22" height="20" viewBox="0 0 22 20" fill="none" xmlns="http://www.w3.org/2000/svg">
<path fill-rule="evenodd" clip-rule="evenodd" d="M23.375 18.75C23.375 19.2332 22.9832 19.625 22.5 19.625H1.5C1.01675 19.625 0.625 19.2332 0.625 18.75V1.25C0.625 0.766751 1.01675 0.375 1.5 0.375C1.98325 0.375 2.375 0.766751 2.375 1.25V11.5717L7.92359 6.71875C8.23477 6.44635 8.69418 6.42901 9.025 6.67719L15.4573 11.5017L21.9236 5.84375C22.1546 5.61507 22.4934 5.5333 22.8033 5.63141C23.1132 5.72953 23.3431 5.99135 23.4005 6.31132C23.4578 6.63129 23.333 6.95666 23.0764 7.15625L16.0764 13.2812C15.7652 13.5536 15.3058 13.571 14.975 13.3228L8.54266 8.50047L2.375 13.897V17.875H22.5C22.9832 17.875 23.375 18.2668 23.375 18.75Z" fill="#0D141C"/>
</svg>
