<svg width="50" height="50" viewBox="0 0 50 50" fill="none" xmlns="http://www.w3.org/2000/svg">
<g clip-path="url(#clip0_850_408)">
<path d="M3.40909 43.7595H11.3636V24.4413L0 15.9186V40.3504C0 42.2368 1.52841 43.7595 3.40909 43.7595Z" fill="#4285F4"/>
<path d="M38.6365 43.7595H46.591C48.4774 43.7595 50.0001 42.2311 50.0001 40.3504V15.9186L38.6365 24.4413" fill="#34A853"/>
<path d="M38.6365 9.66876V24.4415L50.0001 15.9188V11.3733C50.0001 7.1574 45.1876 4.75399 41.8183 7.2824" fill="#FBBC04"/>
<path d="M11.3635 24.4413V9.66858L24.9999 19.8959L38.6363 9.66858V24.4413L24.9999 34.6686" fill="#EA4335"/>
<path d="M0 11.3733V15.9188L11.3636 24.4415V9.66876L8.18182 7.2824C4.80682 4.75399 0 7.1574 0 11.3733" fill="#C5221F"/>
</g>
<defs>
<clipPath id="clip0_850_408">
<rect width="50" height="50" fill="white"/>
</clipPath>
</defs>
</svg>
